<svg id="NORMA_Connect_Logo" data-name="NORMA Connect Logo" xmlns="http://www.w3.org/2000/svg" width="160" height="72.5" viewBox="0 0 160 72.5">
  <path id="R" d="M152.1,62.82a3.443,3.443,0,1,1-2.45.989,3.432,3.432,0,0,1,2.45-.989Zm0,.554a2.874,2.874,0,1,0,2.9,2.864A2.877,2.877,0,0,0,152.1,63.374Zm.206,3.079,1.224,1.765h-.7l-1.029-1.5v1.5h-.576V64.288h.679c.875,0,1.338.4,1.338,1.139a1.027,1.027,0,0,1-.926,1.026Zm-.514-.513h.175c.442,0,.679-.2.679-.575s-.226-.575-.73-.575h-.124v1.15Z" transform="translate(4.291 1.656)" fill="#fff" fill-rule="evenodd"/>
  <path id="Path_1440" data-name="Path 1440" d="M-97.716.5c0-2.922-.193-3.088-2.846-3.088h-2.764c-3.648,0-4.422-2.15-4.422-5.431,0-.855-.138-4.135.525-4.907.58-.689,3.15-.524,3.9-.524h2.929c1.3,0,1.962-.055,2.294-.386.5-.551.359-2.068.359-2.7h-5.582c-6.633,0-8.235,3.97-8.235,8.519,0,4.521,1.575,8.519,8.235,8.519ZM-81.019-8c0-4.576-1.63-8.712-8.539-8.712-6.826,0-8.512,4.135-8.512,8.684,0,4.521,1.658,8.656,8.512,8.656C-82.65.633-81.019-3.5-81.019-8Zm-3.814,0c0,5.486.055,5.514-4.726,5.514-3.841,0-4.7-2.261-4.7-5.541,0-5.541-.028-5.569,4.7-5.569,3.924,0,4.753,2.288,4.753,5.6ZM-62.006.44V-16.542c-3.427,0-3.786.083-3.786,2.371v9.621l-6.826-10.173c-1.3-1.9-1.6-1.82-3.731-1.82h-1.962V-2.206c0,2.536.3,2.647,3.786,2.647V-11.634L-67.7-1.544C-66.483.165-66.428.44-64.051.44Zm19.676,0V-16.542c-3.427,0-3.786.083-3.786,2.371v9.621l-6.826-10.173c-1.3-1.9-1.6-1.82-3.731-1.82h-1.962V-2.206c0,2.536.3,2.647,3.786,2.647V-11.634l6.826,10.09C-46.807.165-46.751.44-44.375.44Zm15.973,0c0-.662.138-2.15-.442-2.7-.387-.3-1.105-.386-2.57-.386H-35.31V-6.672h8.125c0-.634.138-2.123-.415-2.647-.332-.331-.995-.386-2.349-.386H-35.31v-3.722h8.954c0-.634.138-2.15-.415-2.674-.332-.331-1.023-.386-2.4-.386H-35.7c-3.04,0-3.316.083-3.316,2.7V-2.261c0,.689-.111,1.847.525,2.343.608.469,2.1.358,2.791.358ZM-11.509.5c0-2.922-.193-3.088-2.846-3.088h-2.764c-3.648,0-4.422-2.15-4.422-5.431,0-.855-.138-4.135.525-4.907.58-.689,3.15-.524,3.9-.524h2.929c1.3,0,1.962-.055,2.294-.386.5-.551.359-2.068.359-2.7h-5.582c-6.633,0-8.235,3.97-8.235,8.519C-25.354-3.5-23.779.5-17.119.5ZM-10.4-13.426h4.919v11.22C-5.484.33-5.263.44-1.809.44V-13.426H.319c1.327,0,1.99-.055,2.321-.386A1.412,1.412,0,0,0,3-14.75c.028-.331.028-.744.028-1.737H-7.833C-10.237-16.486-10.4-16.266-10.4-13.426Z" transform="translate(147.869 71.867)" fill="#fff"/>
  <path id="Path_1432" data-name="Path 1432" d="M160,50.025H0V0H160V50.025Z" fill="#fd0"/>
  <path id="Path_1433" data-name="Path 1433" d="M0,3.75H160V46.077H0V3.75Z" transform="translate(0 0.099)" fill="#f7a600"/>
  <path id="Path_1434" data-name="Path 1434" d="M0,7.5H160V42.13H0V7.5Z" transform="translate(0 0.198)" fill="#e40521"/>
  <path id="Path_1436" data-name="Path 1436" d="M99.567,38.182H91.85V11.25h8.108l6.358,10.777,6.369-10.777h8.1V38.182h-7.717V22.8l-6.749,11.536L99.567,22.8V38.182Z" transform="translate(2.652 0.297)" fill="#fff"/>
  <path id="Path_1437" data-name="Path 1437" d="M139.536,29.714l-3.087-8.847-3.087,8.847ZM122.22,38.182,132.334,11.25h8.725L150.8,38.182h-8.334l-1.317-3.849h-9.26l-1.327,3.849Z" transform="translate(3.529 0.297)" fill="#fff"/>
  <path id="Path_1438" data-name="Path 1438" d="M76.3,17.152a2.843,2.843,0,1,1,0,5.686H73.327V17.152ZM73.327,28.175V38.182H65.61V11.25H78.358A8.464,8.464,0,0,1,82.72,26.974l6.029,11.208H79.716L75.137,28.175Z" transform="translate(1.894 0.297)" fill="#fff" fill-rule="evenodd"/>
  <path id="Path_1439" data-name="Path 1439" d="M42.033,24.741c0-3.808,2.768-6.887,6.173-6.887s6.173,3.079,6.173,6.887-2.768,6.887-6.173,6.887-6.173-3.079-6.173-6.887Zm-8.293,0A14.466,14.466,0,1,1,48.206,39.171,14.448,14.448,0,0,1,33.74,24.741Z" transform="translate(0.974 0.272)" fill="#fff" fill-rule="evenodd"/>
  <path id="Path_1435" data-name="Path 1435" d="M15.206,38.182H7.5V11.25h7.717l7.717,13.466V11.25h7.706V38.182H22.933L15.217,24.716l-.01,13.466Z" transform="translate(0.217 0.297)" fill="#fff"/>
</svg>
